<?xml version="1.0" encoding="UTF-8" standalone="no"?>
<svg
   viewBox="0.0 0.0 348.0 348.0"
   fill="none"
   version="1.1"
   id="svg2"
   sodipodi:docname="Smash, Marry, Kill.svg"
   inkscape:version="1.3.2 (091e20e, 2023-11-25)"
   xmlns:inkscape="http://www.inkscape.org/namespaces/inkscape"
   xmlns:sodipodi="http://sodipodi.sourceforge.net/DTD/sodipodi-0.dtd"
   xmlns="http://www.w3.org/2000/svg"
   xmlns:svg="http://www.w3.org/2000/svg">
  <defs
     id="defs2" />
  <sodipodi:namedview
     id="namedview2"
     pagecolor="#505050"
     bordercolor="#eeeeee"
     borderopacity="1"
     inkscape:showpageshadow="0"
     inkscape:pageopacity="0"
     inkscape:pagecheckerboard="0"
     inkscape:deskcolor="#505050"
     inkscape:zoom="1.6925287"
     inkscape:cx="173.70458"
     inkscape:cy="174"
     inkscape:window-width="1440"
     inkscape:window-height="828"
     inkscape:window-x="0"
     inkscape:window-y="0"
     inkscape:window-maximized="1"
     inkscape:current-layer="svg2" />
  <path
     d="M5.079 5.776h336.913v337.67H5.08z"
     stroke-width="2"
     stroke="#000"
     id="path1" />
  <path
     d="M282.734 40.554c0-8.376 6.966-15.165 15.56-15.165 4.126 0 8.084 1.597 11.001 4.441 2.918 2.844 4.558 6.702 4.558 10.724 0 8.376-6.966 15.165-15.56 15.165-8.593 0-15.559-6.79-15.559-15.165z"
     stroke-width="2"
     stroke="#000"
     id="path2" />
  <path
     d="m 56.396295,203.8074 v -7.33921 h -7.420759 v -8.23622 h 8.236227 v 7.42075 H 78.577024 V 181.62667 H 56.396295 v -7.33921 h -7.420759 v -15.49389 h 7.420759 v -7.42076 h 22.996197 v 7.42076 h 7.502305 v 8.15468 h -8.317773 v -7.33921 H 57.211763 v 13.9445 h 22.180729 v 7.25767 h 7.502305 v 15.65698 h -7.502305 v 7.33921 z m 40.365545,0 v -45.01383 h 7.42076 v -7.42076 h 8.15468 v 7.42076 h 7.5023 v 14.75997 h 6.52375 v -14.75997 h 7.5023 v -7.42076 h 8.23623 v 7.42076 h 7.33921 v 45.01383 h -8.15468 v -44.19836 h -6.60529 v 14.67842 h -7.5023 v 22.18073 h -8.15468 v -22.18073 h -7.50231 v -14.67842 h -6.52374 v 44.19836 z m 61.73077,0 v -37.67462 h 7.42076 v -7.33921 h 7.33921 v -7.42076 h 8.31777 v 7.42076 h 7.33922 v 7.33921 h 7.5023 v 37.67462 h -8.31777 v -14.75997 h -21.36526 v 14.75997 z m 8.23623,-22.99619 h 21.36526 v -13.86296 h -7.33921 v -7.33921 h -6.68684 v 7.33921 h -7.33921 z m 46.97083,22.99619 v -7.33921 h -7.42076 v -8.23622 h 8.23623 v 7.42075 h 21.36526 v -14.02605 h -22.18073 v -7.33921 h -7.42076 v -15.49389 h 7.42076 v -7.42076 h 22.9962 v 7.42076 h 7.5023 v 8.15468 h -8.31777 v -7.33921 h -21.36526 v 13.9445 h 22.18073 v 7.25767 h 7.5023 v 15.65698 h -7.5023 v 7.33921 z m 40.36556,0 v -52.43459 h 8.23622 v 22.18073 h 6.52375 v -7.42076 h 8.31777 v 7.42076 h 6.52374 v -22.18073 h 8.31778 v 52.43459 h -8.31778 v -22.18073 h -21.36526 v 22.18073 z"
     id="text2"
     style="-inkscape-font-specification:'Pixelify Sans';fill:#000000;stroke-width:16.9889"
     aria-label="SMASH" />
</svg>
